{
  "accessors": [
    {
      "bufferView": 2,
      "componentType": 5126,
      "count": 2158,
      "max": [
        17.889480590820313,
        26.75054931640625,
        6.873009204864502
      ],
      "min": [
        -17.889480590820313,
        -8.933629035949707,
        -7.711035251617432
      ],
      "type": "VEC3"
    },
    {
      "bufferView": 2,
      "byteOffset": 25896,
      "componentType": 5126,
      "count": 2158,
      "max": [
        1.0,
        0.9948376417160034,
        0.9997835159301758
      ],
      "min": [
        -1.0,
        -0.9999923706054688,
        -0.9999971389770508
      ],
      "type": "VEC3"
    },
    {
      "bufferView": 1,
      "componentType": 5125,
      "count": 3726,
      "type": "SCALAR"
    },
    {
      "bufferView": 4,
      "componentType": 5126,
      "count": 45,
      "max": [
        1.0,
        0.4274899959564209,
        0.0007224581204354763,
        0.0,
        0.4274959862232208,
        1.0,
        0.3294369578361511,
        0.0,
        0.4154405891895294,
        0.378398060798645,
        1.0,
        0.0,
        3.6023499965667725,
        2.03085994720459,
        1.4828100204467773,
        1.0
      ],
      "min": [
        -0.4274899959564209,
        -0.4274899959564209,
        -0.0007224581204354763,
        0.0,
        -0.4274959862232208,
        -0.4274959862232208,
        -0.41089633107185364,
        0.0,
        -0.4154405891895294,
        -0.38868361711502075,
        -0.4323608875274658,
        0.0,
        -3.6023499965667725,
        -10.57763957977295,
        -2.997450113296509,
        1.0
      ],
      "type": "MAT4"
    },
    {
      "bufferView": 0,
      "componentType": 5123,
      "count": 2158,
      "type": "VEC4"
    },
    {
      "bufferView": 3,
      "componentType": 5126,
      "count": 2158,
      "max": [
        1.0,
        0.5,
        0.3333333432674408,
        0.25
      ],
      "min": [
        0.0,
        0.0,
        0.0,
        0.0
      ],
      "type": "VEC4"
    }
  ],
  "asset": {
    "extras": {
      "author": "carnotaurusarms (https://sketchfab.com/carnotaurusarms)",
      "license": "CC-BY-4.0 (http://creativecommons.org/licenses/by/4.0/)",
      "source": "https://sketchfab.com/3d-models/ant-low-poly-1fb4252876e94cb0a77951fb7a4ed6a7",
      "title": "Ant Low Poly"
    },
    "generator": "Sketchfab-12.67.0",
    "version": "2.0"
  },
  "bufferViews": [
    {
      "buffer": 0,
      "byteLength": 17264,
      "byteStride": 8,
      "name": "shortBufferViews",
      "target": 34962
    },
    {
      "buffer": 0,
      "byteLength": 14904,
      "byteOffset": 17264,
      "name": "floatBufferViews",
      "target": 34963
    },
    {
      "buffer": 0,
      "byteLength": 51792,
      "byteOffset": 32168,
      "byteStride": 12,
      "name": "floatBufferViews",
      "target": 34962
    },
    {
      "buffer": 0,
      "byteLength": 34528,
      "byteOffset": 83960,
      "byteStride": 16,
      "name": "floatBufferViews",
      "target": 34962
    },
    {
      "buffer": 0,
      "byteLength": 2880,
      "byteOffset": 118488,
      "name": "floatBufferViews"
    }
  ],
  "buffers": [
    {
      "byteLength": 121368,
      "uri": "scene.bin"
    }
  ],
  "materials": [
    {
      "doubleSided": true,
      "name": "Material",
      "pbrMetallicRoughness": {
        "baseColorFactor": [
          0.8000000715255737,
          0.06231627240777018,
          0.07908089458942416,
          1.0
        ],
        "metallicFactor": 0.9577568582018966,
        "roughnessFactor": 0.50765194682955
      }
    }
  ],
  "meshes": [
    {
      "name": "Cube",
      "primitives": [
        {
          "attributes": {
            "JOINTS_0": 4,
            "NORMAL": 1,
            "POSITION": 0,
            "WEIGHTS_0": 5
          },
          "indices": 2,
          "material": 0,
          "mode": 4
        }
      ]
    }
  ],
  "nodes": [
    {
      "children": [
        1
      ],
      "matrix": [
        1.0,
        0.0,
        0.0,
        0.0,
        0.0,
        2.220446049250313e-16,
        -1.0,
        0.0,
        0.0,
        1.0,
        2.220446049250313e-16,
        0.0,
        0.0,
        0.0,
        0.0,
        1.0
      ],
      "name": "Sketchfab_model"
    },
    {
      "children": [
        2,
        4
      ],
      "name": "Root"
    },
    {
      "children": [
        3
      ],
      "matrix": [
        -0.29086000000000006,
        0.9551700000000001,
        -0.05519000000000001,
        0.0,
        -0.7711,
        -0.19988000000000003,
        0.6045200000000001,
        0.0,
        0.5663900000000001,
        0.21839000000000003,
        0.7946700000000001,
        0.0,
        4.076250000000001,
        1.00545,
        5.4446,
        1.0
      ],
      "name": "Lamp"
    },
    {
      "name": "Lamp"
    },
    {
      "children": [
        5,
        51,
        50
      ],
      "name": "Armature"
    },
    {
      "children": [
        6,
        7
      ],
      "name": "Armature_rootJoint"
    },
    {
      "name": "Root_Armature",
      "rotation": [
        -0.001049998216331005,
        0.0,
        0.0,
        0.999999463558197
      ],
      "scale": [
        1.0,
        1.000002145767212,
        1.000002145767212
      ],
      "translation": [
        0.0,
        -0.5,
        0.044679999351501465
      ]
    },
    {
      "children": [
        8,
        9,
        32,
        36,
        41,
        45
      ],
      "name": "hip_Armature",
      "rotation": [
        -0.001264996943064034,
        0.0,
        0.0,
        0.9999992251396179
      ],
      "scale": [
        1.0,
        1.0000032186508179,
        1.0000032186508179
      ],
      "translation": [
        0.0,
        0.2415899932384491,
        0.9680200219154358
      ]
    },
    {
      "name": "abdomen_Armature",
      "rotation": [
        0.5181453227996826,
        0.0,
        0.0,
        0.8552926182746887
      ],
      "scale": [
        1.0,
        0.9999980926513672,
        0.9999980926513672
      ],
      "translation": [
        0.0,
        0.8273400068283081,
        0.0
      ]
    },
    {
      "children": [
        10
      ],
      "name": "thorax3_Armature",
      "rotation": [
        0.9999964237213135,
        0.0,
        1.5084842743817717e-05,
        -0.002670030575245619
      ],
      "scale": [
        1.0,
        1.0000041723251343,
        0.9887441992759705
      ],
      "translation": [
        0.0,
        0.37900999188423157,
        0.5008000135421753
      ]
    },
    {
      "children": [
        11,
        20,
        26
      ],
      "name": "thorax2_Armature",
      "rotation": [
        5.512026746146148e-06,
        0.9564422369003296,
        -0.2919216454029083,
        1.341516417596722e-05
      ],
      "scale": [
        1.0000015497207642,
        0.999995768070221,
        0.9999942779541016
      ],
      "translation": [
        0.0,
        0.7547199726104736,
        0.0
      ]
    },
    {
      "children": [
        12
      ],
      "name": "thorax1_Armature",
      "rotation": [
        -0.37845590710639954,
        0.0,
        0.0,
        0.9256193041801453
      ],
      "scale": [
        1.0,
        0.9999968409538269,
        0.9999968409538269
      ],
      "translation": [
        0.0,
        0.9303600192070007,
        0.0
      ]
    },
    {
      "children": [
        13
      ],
      "name": "neck_Armature",
      "rotation": [
        0.16541942954063416,
        0.0,
        0.0,
        0.9862233996391296
      ],
      "scale": [
        1.0,
        0.9999970197677612,
        0.9999970197677612
      ],
      "translation": [
        0.0,
        0.9079700112342834,
        0.0
      ]
    },
    {
      "children": [
        14,
        17
      ],
      "name": "head_Armature",
      "rotation": [
        -0.3919639587402344,
        0.0,
        0.0,
        0.9199805855751038
      ],
      "scale": [
        1.0,
        1.000002145767212,
        1.000002145767212
      ],
      "translation": [
        0.0,
        0.37272998690605164,
        0.0
      ]
    },
    {
      "children": [
        15
      ],
      "name": "antennae1.L_Armature",
      "rotation": [
        0.7944621443748474,
        -0.13996632397174835,
        -0.5847814083099365,
        0.08526600897312164
      ],
      "scale": [
        0.9999954104423523,
        1.0000025033950806,
        0.9999972581863403
      ],
      "translation": [
        -0.37922999262809753,
        1.2476799488067627,
        0.7455999851226807
      ]
    },
    {
      "children": [
        16
      ],
      "name": "antennae2.L_Armature",
      "rotation": [
        0.660289466381073,
        -0.2705248296260834,
        -0.3158526122570038,
        0.625356912612915
      ],
      "scale": [
        1.0000044107437134,
        0.9999945163726807,
        0.9999986886978149
      ],
      "translation": [
        0.0,
        1.3277000188827515,
        0.0
      ]
    },
    {
      "name": "antennae3.L_Armature",
      "rotation": [
        -0.3063448369503021,
        -0.11064492166042328,
        -0.04510302469134331,
        0.9443920254707336
      ],
      "scale": [
        1.0000046491622925,
        1.0000020265579224,
        0.9999989867210388
      ],
      "translation": [
        0.0,
        3.704279899597168,
        0.0
      ]
    },
    {
      "children": [
        18
      ],
      "name": "antennae1.R_Armature",
      "rotation": [
        0.026622336357831955,
        0.14638951420783997,
        0.9831986427307129,
        -0.10574392974376678
      ],
      "scale": [
        1.000001072883606,
        1.0000035762786865,
        0.9999972581863403
      ],
      "translation": [
        0.37922999262809753,
        1.2476799488067627,
        0.7455999851226807
      ]
    },
    {
      "children": [
        19
      ],
      "name": "antennae2.R_Armature",
      "rotation": [
        0.6672374606132507,
        -0.547086775302887,
        -0.24343241751194,
        -0.4429795742034912
      ],
      "scale": [
        1.000001072883606,
        0.9999934434890747,
        0.999996542930603
      ],
      "translation": [
        0.0,
        1.3276900053024292,
        0.0
      ]
    },
    {
      "name": "antennae3.R_Armature",
      "rotation": [
        0.3119293749332428,
        -0.02310272678732872,
        -0.11593582481145859,
        0.9427222609519958
      ],
      "scale": [
        0.9999979734420776,
        1.0000051259994507,
        0.9999955892562866
      ],
      "translation": [
        0.0,
        3.704279899597168,
        0.0
      ]
    },
    {
      "children": [
        21
      ],
      "name": "clav.L_Armature",
      "rotation": [
        -0.7465736865997314,
        -0.035578902810811996,
        0.13167983293533325,
        0.651170015335083
      ],
      "scale": [
        1.0000029802322388,
        1.0000007152557373,
        0.9999918937683105
      ],
      "translation": [
        -0.328249990940094,
        1.1439900398254395,
        -0.14293000102043152
      ]
    },
    {
      "children": [
        22
      ],
      "name": "upperarm.L_Armature",
      "rotation": [
        0.0,
        0.8060863018035889,
        -0.5917980074882507,
        0.0
      ],
      "scale": [
        1.0,
        0.9999994039535522,
        0.9999994039535522
      ],
      "translation": [
        0.0,
        0.6287999749183655,
        0.0
      ]
    },
    {
      "children": [
        23
      ],
      "name": "forearm.L_Armature",
      "rotation": [
        -0.865837812423706,
        0.0,
        0.0,
        0.5003248453140259
      ],
      "scale": [
        1.0,
        0.9999997019767761,
        0.9999997019767761
      ],
      "translation": [
        0.0,
        1.1147099733352661,
        0.0
      ]
    },
    {
      "children": [
        24
      ],
      "name": "wrist.L_Armature",
      "rotation": [
        0.3295438885688782,
        0.0,
        0.0,
        0.9441402554512024
      ],
      "scale": [
        1.0,
        0.9999979138374329,
        0.9999979138374329
      ],
      "translation": [
        0.0,
        1.5443099737167358,
        0.0
      ]
    },
    {
      "children": [
        25
      ],
      "name": "hand1.L_Armature",
      "rotation": [
        -0.13918547332286835,
        0.0,
        0.0,
        0.9902663230895996
      ],
      "scale": [
        1.0,
        0.9999949932098389,
        0.9999949932098389
      ],
      "translation": [
        0.0,
        1.3151400089263916,
        0.0
      ]
    },
    {
      "name": "hand2.L_Armature",
      "rotation": [
        -0.01854323223233223,
        0.0,
        0.0,
        0.9998281598091125
      ],
      "scale": [
        1.0,
        0.9999976754188538,
        0.9999976754188538
      ],
      "translation": [
        0.0,
        1.184190034866333,
        0.0
      ]
    },
    {
      "children": [
        27
      ],
      "name": "clav.R_Armature",
      "rotation": [
        -0.7371755242347717,
        0.054189812391996384,
        -0.20055823028087616,
        0.642971396446228
      ],
      "scale": [
        1.0000011920928955,
        0.9999958872795105,
        1.000002384185791
      ],
      "translation": [
        0.328249990940094,
        1.1439900398254395,
        -0.14293000102043152
      ]
    },
    {
      "children": [
        28
      ],
      "name": "upperarm.R_Armature",
      "rotation": [
        0.0,
        0.8060863018035889,
        -0.5917980074882507,
        0.0
      ],
      "scale": [
        1.0,
        0.9999994039535522,
        0.9999994039535522
      ],
      "translation": [
        0.0,
        0.6287999749183655,
        0.0
      ]
    },
    {
      "children": [
        29
      ],
      "name": "forearm.R_Armature",
      "rotation": [
        -0.8470289707183838,
        0.0033999113366007805,
        -0.024125339463353157,
        0.5309880375862122
      ],
      "scale": [
        0.9999969601631165,
        1.0000017881393433,
        0.999999463558197
      ],
      "translation": [
        0.0,
        1.1147199869155884,
        0.0
      ]
    },
    {
      "children": [
        30
      ],
      "name": "wrist.R_Armature",
      "rotation": [
        0.3169287443161011,
        0.0,
        0.0,
        0.9484493732452393
      ],
      "scale": [
        1.0,
        0.999997079372406,
        0.999997079372406
      ],
      "translation": [
        0.0,
        1.5443099737167358,
        0.0
      ]
    },
    {
      "children": [
        31
      ],
      "name": "hand1.R_Armature",
      "rotation": [
        -0.20288558304309845,
        0.0,
        0.0,
        0.9792024493217468
      ],
      "scale": [
        1.0,
        0.999994695186615,
        0.999994695186615
      ],
      "translation": [
        0.0,
        1.3151400089263916,
        0.0
      ]
    },
    {
      "name": "hand2.R_Armature",
      "rotation": [
        -0.004625036381185055,
        0.0,
        0.0,
        0.9999893307685852
      ],
      "scale": [
        1.0,
        1.0000027418136597,
        1.0000027418136597
      ],
      "translation": [
        0.0,
        1.2247400283813477,
        0.0
      ]
    },
    {
      "children": [
        33
      ],
      "name": "F_leg1.L_Armature",
      "rotation": [
        0.46174147725105286,
        -0.20358990132808685,
        -0.34420570731163025,
        0.7917501926422119
      ],
      "scale": [
        1.0000041723251343,
        0.9999933838844299,
        0.9999959468841553
      ],
      "translation": [
        0.43601998686790466,
        -0.021199999377131462,
        -0.07751999795436859
      ]
    },
    {
      "children": [
        34
      ],
      "name": "F_leg2.L_Armature",
      "rotation": [
        0.861312985420227,
        -0.09742024540901184,
        0.009988196194171906,
        -0.49854734539985657
      ],
      "scale": [
        1.0000017881393433,
        1.000003457069397,
        0.9999940395355225
      ],
      "translation": [
        0.0,
        1.2789499759674072,
        0.0
      ]
    },
    {
      "children": [
        35
      ],
      "name": "F_leg3.L_Armature",
      "rotation": [
        0.163303405046463,
        -0.049410849809646606,
        -0.045133426785469055,
        0.9843035936355591
      ],
      "scale": [
        0.9999956488609314,
        1.0000011920928955,
        0.9999988675117493
      ],
      "translation": [
        0.0,
        1.7105599641799927,
        0.0
      ]
    },
    {
      "name": "F_foot.L_Armature",
      "rotation": [
        0.13435131311416626,
        -0.02932604029774666,
        -0.01811007782816887,
        0.990334153175354
      ],
      "scale": [
        0.9999960660934448,
        0.999994695186615,
        1.000002145767212
      ],
      "translation": [
        0.0,
        2.312119960784912,
        0.0
      ]
    },
    {
      "children": [
        37
      ],
      "name": "B_leg1.L_Armature",
      "rotation": [
        -0.33131319284439087,
        0.0691445991396904,
        -0.19077704846858978,
        0.9214416742324829
      ],
      "scale": [
        1.0000051259994507,
        0.999994695186615,
        1.000000238418579
      ],
      "translation": [
        0.38646000623703003,
        0.2637999951839447,
        -0.12797999382019043
      ]
    },
    {
      "children": [
        38
      ],
      "name": "B_leg2.L_Armature",
      "rotation": [
        0.7244138121604919,
        -0.0054253265261650085,
        0.004990312270820141,
        0.6893260478973389
      ],
      "scale": [
        0.9999985694885254,
        0.9999995231628418,
        1.0000015497207642
      ],
      "translation": [
        0.0,
        0.45552998781204224,
        0.0
      ]
    },
    {
      "children": [
        39
      ],
      "name": "B_leg3.L_Armature",
      "rotation": [
        -0.8565919399261475,
        0.00637820502743125,
        -0.00369760999456048,
        0.5159417390823364
      ],
      "scale": [
        0.9999952912330627,
        1.0000019073486328,
        1.0000059604644775
      ],
      "translation": [
        0.0,
        3.6968300342559814,
        0.0
      ]
    },
    {
      "children": [
        40
      ],
      "name": "B_leg4.L_Armature",
      "rotation": [
        0.1820446401834488,
        -0.00046041898895055056,
        -0.007897183299064636,
        0.9832585453987122
      ],
      "scale": [
        0.9999946355819702,
        1.000006914138794,
        1.000000238418579
      ],
      "translation": [
        0.0,
        2.367219924926758,
        0.0
      ]
    },
    {
      "name": "B_foot.L_Armature",
      "rotation": [
        0.20126885175704956,
        0.0007124290568754077,
        0.006595155224204063,
        0.9795135855674744
      ],
      "scale": [
        1.0000003576278687,
        0.9999929070472717,
        0.999998927116394
      ],
      "translation": [
        0.0,
        3.465359926223755,
        0.0
      ]
    },
    {
      "children": [
        42
      ],
      "name": "F_leg1.R_Armature",
      "rotation": [
        0.4506911635398865,
        0.22117431461811066,
        0.3435154855251312,
        0.7936980128288269
      ],
      "scale": [
        1.0000048875808716,
        0.9999982118606567,
        0.9999997615814209
      ],
      "translation": [
        -0.43601998686790466,
        -0.021199999377131462,
        -0.07751999795436859
      ]
    },
    {
      "children": [
        43
      ],
      "name": "F_leg2.R_Armature",
      "rotation": [
        -0.8401882648468018,
        -0.002201036550104618,
        0.0014194990508258343,
        0.5422884821891785
      ],
      "scale": [
        1.0000042915344238,
        1.0000061988830566,
        0.9999957084655762
      ],
      "translation": [
        0.0,
        1.2789499759674072,
        0.0
      ]
    },
    {
      "children": [
        44
      ],
      "name": "F_leg3.R_Armature",
      "rotation": [
        0.07543884962797165,
        0.03695939853787422,
        0.056192975491285324,
        0.9948795437812805
      ],
      "scale": [
        0.9999998211860657,
        0.999993622303009,
        1.0000051259994507
      ],
      "translation": [
        0.0,
        1.7105599641799927,
        0.0
      ]
    },
    {
      "name": "F_foot.R_Armature",
      "rotation": [
        0.1248694509267807,
        0.004618276841938496,
        0.04426801949739456,
        0.9911743998527527
      ],
      "scale": [
        1.000001311302185,
        1.0000065565109253,
        0.9999956488609314
      ],
      "translation": [
        0.0,
        2.312119960784912,
        0.0
      ]
    },
    {
      "children": [
        46
      ],
      "name": "B_leg1.R_Armature",
      "rotation": [
        -0.41034334897994995,
        -0.0892641618847847,
        0.1916944533586502,
        0.8870757818222046
      ],
      "scale": [
        1.0000003576278687,
        0.9999927878379822,
        1.000002145767212
      ],
      "translation": [
        -0.38646000623703003,
        0.2637999951839447,
        -0.12797999382019043
      ]
    },
    {
      "children": [
        47
      ],
      "name": "B_leg2.R_Armature",
      "rotation": [
        0.7511609792709351,
        0.005619090981781483,
        -0.004772405605763197,
        0.6600779294967651
      ],
      "scale": [
        0.9999984502792358,
        1.0000051259994507,
        0.9999960064888
      ],
      "translation": [
        0.0,
        0.45552998781204224,
        0.0
      ]
    },
    {
      "children": [
        48
      ],
      "name": "B_leg3.R_Armature",
      "rotation": [
        -0.8337265253067017,
        -0.00621422752737999,
        0.003966923803091049,
        0.5521283745765686
      ],
      "scale": [
        0.9999967813491821,
        1.0000001192092896,
        1.000005841255188
      ],
      "translation": [
        0.0,
        3.6968300342559814,
        0.0
      ]
    },
    {
      "children": [
        49
      ],
      "name": "B_leg4.R_Armature",
      "rotation": [
        0.21567220985889435,
        -0.0025197381619364023,
        0.007496290374547243,
        0.9764338135719299
      ],
      "scale": [
        0.9999920129776001,
        1.0000025033950806,
        1.0000039339065552
      ],
      "translation": [
        0.0,
        2.367219924926758,
        0.0
      ]
    },
    {
      "name": "B_foot.R_Armature",
      "rotation": [
        0.2129592001438141,
        -0.000849858857691288,
        -0.007863256148993969,
        0.9770290851593018
      ],
      "scale": [
        0.9999927878379822,
        0.9999986886978149,
        1.0000053644180298
      ],
      "translation": [
        0.0,
        3.465359926223755,
        0.0
      ]
    },
    {
      "matrix": [
        0.42749000000000004,
        0.0,
        0.0,
        0.0,
        0.0,
        0.37433000000000005,
        -0.20647000000000001,
        0.0,
        -0.0,
        0.20647000000000001,
        0.37433000000000005,
        0.0,
        0.0,
        -3.0485900000000004,
        1.39175,
        1.0
      ],
      "name": "Cube"
    },
    {
      "mesh": 0,
      "name": "Cube_0",
      "skin": 0
    }
  ],
  "scene": 0,
  "scenes": [
    {
      "name": "Sketchfab_Scene",
      "nodes": [
        0
      ]
    }
  ],
  "skins": [
    {
      "inverseBindMatrices": 3,
      "joints": [
        5,
        6,
        7,
        8,
        9,
        10,
        11,
        12,
        13,
        14,
        15,
        16,
        17,
        18,
        19,
        20,
        21,
        22,
        23,
        24,
        25,
        26,
        27,
        28,
        29,
        30,
        31,
        32,
        33,
        34,
        35,
        36,
        37,
        38,
        39,
        40,
        41,
        42,
        43,
        44,
        45,
        46,
        47,
        48,
        49
      ],
      "skeleton": 5
    }
  ]
}
